# xmcd
#
# Track frame offsets: 
#        150
#        8781
#        30690
#        47564
#        51964
#        57264
#        73517
#        82731
#        92717
#        103322
#        122309
#        130639
#        141491
#        153243
#        166704
#        178151
#        191524
#        210723
#        221106
#        229701
#        251589
#        268142
#        278894
#        298769
#        307909
#        318692
#        332205
#
# Disc length: 4678 seconds
#
# Revision: 0
# Processed by: cddbd v1.5.2PL0 Copyright (c) Steve Scherf et al.
# Submitted via: ExactAudioCopy v0.95b3
#
DISCID=8c12441b
DTITLE=Beach Boys  - SMiLE - Purple Chick  FLAC
DYEAR=1900
DGENRE=
TTITLE0=Our Prayer-Gee
TTITLE1=Heroes And Villians
TTITLE2=Roll Plymouth Rock
TTITLE3=Barnyard
TTITLE4=Old Master Painter--You Are My Sunshine
TTITLE5=Cabin Essence
TTITLE6=Wonderful
TTITLE7=Song For Children
TTITLE8=Child Is Father Of The Man
TTITLE9=Surf's Up
TTITLE10=I'm In Great Shape--I Wanna Be Around\\Workshop
TTITLE11=Vega-Tables
TTITLE12=On A Holiday
TTITLE13=Wind Chimes
TTITLE14=Mrs. O'Leary's Cow
TTITLE15=In Blue Hawaii
TTITLE16=Good Vibrations
TTITLE17=Vega-Tables (vocals only)
TTITLE18=Our Prayer--Gee (mono)
TTITLE19=Heroes And Villians (mono)
TTITLE20=Roll Plymouth Rock (mono)
TTITLE21=Child Is Father Of The Man (mono)
TTITLE22=Surf's Up (alternate)
TTITLE23=I'm In Great Shape--I Wanna Be Around--Workshop (mono)
TTITLE24=Vega-Tables (mono)
TTITLE25=In Blue Hawaii (with mono sections)
TTITLE26=Good Vibrations (stereo - original lyrics)
EXTD=
EXTT0=
EXTT1=
EXTT2=
EXTT3=
EXTT4=
EXTT5=
EXTT6=
EXTT7=
EXTT8=
EXTT9=
EXTT10=
EXTT11=
EXTT12=
EXTT13=
EXTT14=
EXTT15=
EXTT16=
EXTT17=
EXTT18=
EXTT19=
EXTT20=
EXTT21=
EXTT22=
EXTT23=
EXTT24=
EXTT25=
EXTT26=
PLAYORDER=
